<!DOCTYPE svg PUBLIC "-//W3C//DTD SVG 1.1//EN" "http://www.w3.org/Graphics/SVG/1.1/DTD/svg11.dtd">
<!-- Uploaded to: SVG Repo, www.svgrepo.com, Transformed by: SVG Repo Mixer Tools -->
<svg height="800px" width="800px" version="1.1" id="Layer_1" xmlns="http://www.w3.org/2000/svg" xmlns:xlink="http://www.w3.org/1999/xlink" viewBox="0 0 512 512" xml:space="preserve" fill="#000000">
<g id="SVGRepo_bgCarrier" stroke-width="0"/>
<g id="SVGRepo_tracerCarrier" stroke-linecap="round" stroke-linejoin="round"/>
<g id="SVGRepo_iconCarrier"> <g transform="translate(1 1)"> <path style="fill:#FFE100;" d="M340.333,92.867c0,46.933-38.4,85.333-85.333,85.333s-85.333-38.4-85.333-85.333 S208.067,7.533,255,7.533S340.333,45.933,340.333,92.867"/> <path style="fill:#FFA800;" d="M255,7.533c-4.267,0-8.533,0.853-12.8,0.853c40.96,6.827,72.533,41.813,72.533,84.48 s-31.573,77.653-72.533,84.48c4.267,0.853,8.533,0.853,12.8,0.853c46.933,0,85.333-38.4,85.333-85.333S301.933,7.533,255,7.533"/> <path style="fill:#FFFFFF;" d="M255,7.533c4.267,0,8.533,0.853,12.8,0.853c-40.96,6.827-72.533,41.813-72.533,84.48 s31.573,77.653,72.533,84.48c-4.267,0.853-8.533,0.853-12.8,0.853c-46.933,0-85.333-38.4-85.333-85.333S208.067,7.533,255,7.533"/> <g> <path style="fill:#FDCC00;" d="M306.2,166.253c-15.36,7.68-33.28,11.947-51.2,11.947s-35.84-4.267-51.2-11.947v46.08h102.4 V166.253z"/> <polygon style="fill:#FDCC00;" points="289.133,255 220.867,255 203.8,212.333 306.2,212.333 "/> </g> <g> <path style="fill:#FFE100;" d="M84.333,348.867c-5.12,0-8.533-3.413-8.533-8.533V306.2c0-5.12,3.413-8.533,8.533-8.533 c5.12,0,8.533,3.413,8.533,8.533v34.133C92.867,345.453,89.453,348.867,84.333,348.867z"/> <path style="fill:#FFE100;" d="M442.733,348.867c-5.12,0-8.533-3.413-8.533-8.533V306.2c0-5.12,3.413-8.533,8.533-8.533 c5.12,0,8.533,3.413,8.533,8.533v34.133C451.267,345.453,447.853,348.867,442.733,348.867z"/> <path style="fill:#FFE100;" d="M442.733,314.733h-358.4c-5.12,0-8.533-3.413-8.533-8.533s3.413-8.533,8.533-8.533h358.4 c5.12,0,8.533,3.413,8.533,8.533S447.853,314.733,442.733,314.733z"/> <path style="fill:#FFE100;" d="M263.533,348.867c-5.12,0-8.533-3.413-8.533-8.533v-76.8c0-5.12,3.413-8.533,8.533-8.533 c5.12,0,8.533,3.413,8.533,8.533v76.8C272.067,345.453,268.653,348.867,263.533,348.867z"/> </g> <g> <path style="fill:#63D3FD;" d="M109.933,502.467H41.667V485.4c0-18.773,15.36-34.133,34.133-34.133s34.133,15.36,34.133,34.133 V502.467z"/> <path style="fill:#63D3FD;" d="M101.4,391.533c0,14.507-11.093,25.6-25.6,25.6s-25.6-11.093-25.6-25.6s11.093-25.6,25.6-25.6 S101.4,377.027,101.4,391.533"/> <path style="fill:#63D3FD;" d="M289.133,502.467h-68.267V485.4c0-18.773,15.36-34.133,34.133-34.133s34.133,15.36,34.133,34.133 V502.467z"/> <path style="fill:#63D3FD;" d="M280.6,391.533c0,14.507-11.093,25.6-25.6,25.6c-14.507,0-25.6-11.093-25.6-25.6 s11.093-25.6,25.6-25.6C269.507,365.933,280.6,377.027,280.6,391.533"/> <path style="fill:#63D3FD;" d="M468.333,502.467h-68.267V485.4c0-18.773,15.36-34.133,34.133-34.133 c18.773,0,34.133,15.36,34.133,34.133V502.467z"/> <path style="fill:#63D3FD;" d="M459.8,391.533c0,14.507-11.093,25.6-25.6,25.6c-14.507,0-25.6-11.093-25.6-25.6 s11.093-25.6,25.6-25.6C448.707,365.933,459.8,377.027,459.8,391.533"/> </g> <path d="M109.933,511H41.667c-5.12,0-8.533-3.413-8.533-8.533V485.4c0-23.893,18.773-42.667,42.667-42.667 s42.667,18.773,42.667,42.667v17.067C118.467,507.587,115.053,511,109.933,511z M50.2,493.933h51.2V485.4 c0-14.507-11.093-25.6-25.6-25.6s-25.6,11.093-25.6,25.6V493.933z"/> <path d="M255,186.733c-52.053,0-93.867-41.813-93.867-93.867S202.947-1,255-1s93.867,41.813,93.867,93.867 S307.053,186.733,255,186.733z M255,16.067c-42.667,0-76.8,34.133-76.8,76.8s34.133,76.8,76.8,76.8s76.8-34.133,76.8-76.8 S297.667,16.067,255,16.067z"/> <path d="M306.2,220.867H203.8c-5.12,0-8.533-3.413-8.533-8.533v-46.08c0-2.56,1.707-5.973,4.267-6.827 c2.56-1.707,5.973-1.707,8.533-0.853c29.867,14.507,64.853,14.507,94.72,0c2.56-0.853,5.973-0.853,8.533,0.853 c2.56,1.707,4.267,4.267,4.267,6.827v46.08C314.733,217.453,311.32,220.867,306.2,220.867z M212.333,203.8h85.333v-24.747 c-27.307,10.24-58.027,10.24-85.333,0V203.8z"/> <path d="M289.133,263.533h-68.267c-3.413,0-6.827-1.707-7.68-5.12l-17.067-42.667c-0.853-2.56-0.853-5.973,0.853-7.68 c1.707-1.707,4.267-4.267,6.827-4.267h102.4c2.56,0,5.12,1.707,6.827,3.413c1.707,2.56,1.707,5.12,0.853,7.68l-17.067,42.667 C295.96,261.827,292.547,263.533,289.133,263.533z M226.84,246.467h56.32l10.24-25.6h-76.8L226.84,246.467z"/> <path d="M75.8,425.667c-18.773,0-34.133-15.36-34.133-34.133S57.027,357.4,75.8,357.4s34.133,15.36,34.133,34.133 S94.573,425.667,75.8,425.667z M75.8,374.467c-9.387,0-17.067,7.68-17.067,17.067S66.413,408.6,75.8,408.6 s17.067-7.68,17.067-17.067S85.187,374.467,75.8,374.467z"/> <path d="M289.133,511h-68.267c-5.12,0-8.533-3.413-8.533-8.533V485.4c0-23.893,18.773-42.667,42.667-42.667 s42.667,18.773,42.667,42.667v17.067C297.667,507.587,294.253,511,289.133,511z M229.4,493.933h51.2V485.4 c0-14.507-11.093-25.6-25.6-25.6c-14.507,0-25.6,11.093-25.6,25.6V493.933z"/> <path d="M255,425.667c-18.773,0-34.133-15.36-34.133-34.133S236.227,357.4,255,357.4s34.133,15.36,34.133,34.133 S273.773,425.667,255,425.667z M255,374.467c-9.387,0-17.067,7.68-17.067,17.067S245.613,408.6,255,408.6 s17.067-7.68,17.067-17.067S264.387,374.467,255,374.467z"/> <path d="M468.333,511h-68.267c-5.12,0-8.533-3.413-8.533-8.533V485.4c0-23.893,18.773-42.667,42.667-42.667 c23.893,0,42.667,18.773,42.667,42.667v17.067C476.867,507.587,473.453,511,468.333,511z M408.6,493.933h51.2V485.4 c0-14.507-11.093-25.6-25.6-25.6c-14.507,0-25.6,11.093-25.6,25.6V493.933z"/> <path d="M434.2,425.667c-18.773,0-34.133-15.36-34.133-34.133S415.427,357.4,434.2,357.4c18.773,0,34.133,15.36,34.133,34.133 S452.973,425.667,434.2,425.667z M434.2,374.467c-9.387,0-17.067,7.68-17.067,17.067s7.68,17.067,17.067,17.067 s17.067-7.68,17.067-17.067S443.587,374.467,434.2,374.467z"/> <path d="M255,186.733c-5.12,0-8.533-3.413-8.533-8.533V58.733c0-5.12,3.413-8.533,8.533-8.533s8.533,3.413,8.533,8.533V178.2 C263.533,183.32,260.12,186.733,255,186.733z"/> <path d="M272.067,92.867h-34.133c-5.12,0-8.533-3.413-8.533-8.533s3.413-8.533,8.533-8.533h34.133c5.12,0,8.533,3.413,8.533,8.533 S277.187,92.867,272.067,92.867z"/> <path d="M272.067,127h-34.133c-5.12,0-8.533-3.413-8.533-8.533s3.413-8.533,8.533-8.533h34.133c5.12,0,8.533,3.413,8.533,8.533 S277.187,127,272.067,127z"/> <path d="M75.8,340.333c-5.12,0-8.533-3.413-8.533-8.533v-34.133c0-5.12,3.413-8.533,8.533-8.533c5.12,0,8.533,3.413,8.533,8.533 V331.8C84.333,336.92,80.92,340.333,75.8,340.333z"/> <path d="M434.2,340.333c-5.12,0-8.533-3.413-8.533-8.533v-34.133c0-5.12,3.413-8.533,8.533-8.533c5.12,0,8.533,3.413,8.533,8.533 V331.8C442.733,336.92,439.32,340.333,434.2,340.333z"/> <path d="M434.2,306.2H75.8c-5.12,0-8.533-3.413-8.533-8.533s3.413-8.533,8.533-8.533h358.4c5.12,0,8.533,3.413,8.533,8.533 S439.32,306.2,434.2,306.2z"/> <path d="M255,340.333c-5.12,0-8.533-3.413-8.533-8.533V255c0-5.12,3.413-8.533,8.533-8.533s8.533,3.413,8.533,8.533v76.8 C263.533,336.92,260.12,340.333,255,340.333z"/> </g> </g>
</svg>